<mxfile host="app.diagrams.net" modified="2023-08-07T09:02:33.281Z" agent="Mozilla/5.0 (X11; Linux x86_64; rv:109.0) Gecko/20100101 Firefox/116.0" etag="oi5mgmG55GWFoK509JNq" version="21.6.6" type="github">
  <diagram name="Page-1" id="yzwAwO2GGAENzabZ1si4">
    <mxGraphModel dx="815" dy="425" grid="1" gridSize="10" guides="1" tooltips="1" connect="1" arrows="1" fold="1" page="1" pageScale="1" pageWidth="850" pageHeight="1100" background="#ffffff" math="0" shadow="0">
      <root>
        <mxCell id="0" />
        <mxCell id="1" parent="0" />
        <mxCell id="G6pVzSp4NynlIXQQOOaS-5" value="" style="endArrow=none;dashed=1;html=1;dashPattern=1 3;strokeWidth=2;rounded=0;exitX=1;exitY=0;exitDx=0;exitDy=0;labelBackgroundColor=none;fontColor=default;strokeColor=#E07A5F;" edge="1" parent="1">
          <mxGeometry width="50" height="50" relative="1" as="geometry">
            <mxPoint x="480" y="240" as="sourcePoint" />
            <mxPoint x="480" y="240" as="targetPoint" />
            <Array as="points">
              <mxPoint x="480" y="320" />
              <mxPoint x="160" y="320" />
              <mxPoint x="160" y="40" />
              <mxPoint x="480" y="40" />
              <mxPoint x="480" y="120" />
              <mxPoint x="240" y="120" />
              <mxPoint x="240" y="240" />
            </Array>
          </mxGeometry>
        </mxCell>
      </root>
    </mxGraphModel>
  </diagram>
</mxfile>
